<svg width="20" height="21" fill="none" xmlns="http://www.w3.org/2000/svg"><path fill-rule="evenodd" clip-rule="evenodd" d="M1.756 2.781A2.933 2.933 0 0 1 4.48.937h11.04c1.2 0 2.278.73 2.724 1.844l1.464 3.66a.942.942 0 0 1 .02.054l.12.36c.549 1.648-.444 3.344-2.026 3.762v6.942a2.933 2.933 0 0 1-2.933 2.934H5.11a2.933 2.933 0 0 1-2.933-2.934v-6.942C.596 10.2-.397 8.503.153 6.854l.12-.36a.976.976 0 0 1 .02-.053l1.463-3.66zm2.377 7.934v6.844c0 .54.438.978.978.978h1.956v-2.933a2.933 2.933 0 1 1 5.866 0v2.933h1.956c.54 0 .978-.438.978-.978v-6.844h-.547a2.934 2.934 0 0 1-2.387-1.228 2.934 2.934 0 0 1-2.387 1.228H9.454a2.934 2.934 0 0 1-2.387-1.228 2.934 2.934 0 0 1-2.388 1.228h-.546zm6.845 7.822v-2.933a.978.978 0 0 0-1.956 0v2.933h1.956zM4.48 2.893c-.4 0-.76.243-.908.615L2.119 7.14l-.111.332a.978.978 0 0 0 .928 1.287H4.68c.42 0 .794-.27.927-.669l.532-1.596a.978.978 0 0 1 1.855 0l.532 1.596c.133.4.507.669.928.669h1.092c.42 0 .795-.27.928-.669l.532-1.596a.978.978 0 0 1 1.855 0l.532 1.596c.133.4.507.669.927.669h1.744a.978.978 0 0 0 .928-1.287l-.11-.332-1.454-3.633a.978.978 0 0 0-.908-.615H4.48z" fill="#454545"/></svg>