<!DOCTYPE svg PUBLIC "-//W3C//DTD SVG 1.1//EN" "http://www.w3.org/Graphics/SVG/1.1/DTD/svg11.dtd">
<!-- Uploaded to: SVG Repo, www.svgrepo.com, Transformed by: SVG Repo Mixer Tools -->
<svg width="800px" height="800px" viewBox="0 0 24 24" fill="none" xmlns="http://www.w3.org/2000/svg">
<g id="SVGRepo_bgCarrier" stroke-width="0"/>
<g id="SVGRepo_tracerCarrier" stroke-linecap="round" stroke-linejoin="round"/>
<g id="SVGRepo_iconCarrier"> <path fill-rule="evenodd" clip-rule="evenodd" d="M6.45925 6C4.02505 6 2.1552 8.15595 2.49945 10.5657L3.51965 17.7071C3.87155 20.1704 5.98115 22 8.4694 22H15.531C18.0193 22 20.1289 20.1704 20.4808 17.7071L21.501 10.5657C21.8452 8.15595 19.9754 6 17.5412 6H6.45925Z" fill="#ffffff"/> <path fill-rule="evenodd" clip-rule="evenodd" d="M7.00016 4.76363C7.84716 3.06962 9.57838 2 11.4721 2H12.5279C14.4218 2 16.1531 3.07003 17 4.76396L17.8944 6.55279C18.1414 7.04677 17.9412 7.64744 17.4472 7.89443C16.9532 8.14142 16.3526 7.94119 16.1056 7.44721L15.2112 5.65838C14.703 4.64202 13.6642 4 12.5279 4H11.4721C10.3357 4 9.29715 4.64179 8.78901 5.65805L7.89443 7.44721C7.64744 7.94119 7.04677 8.14142 6.55279 7.89443C6.05881 7.64744 5.85859 7.04676 6.10558 6.55279L7.00016 4.76363Z" fill="#ffffff"/> </g>
</svg>